<svg width="48" height="48" viewBox="0 0 48 48" fill="none" xmlns="http://www.w3.org/2000/svg">
<path d="M15.7402 30.2591C16.2226 30.4869 16.5359 30.8131 16.7714 31.2904C16.8466 31.7875 16.8578 32.3254 16.6308 32.7845C16.2883 33.2041 15.9569 33.4798 15.4157 33.5854C14.9047 33.6145 14.5324 33.5173 14.1179 33.2152C13.7556 32.888 13.6099 32.6166 13.5488 32.1429C13.5309 31.6909 13.5439 31.3733 13.7421 30.9622C14.3573 30.2971 14.8424 30.14 15.7402 30.2591Z" fill="#1E3254"/>
<path d="M20.6149 35.0391C21.1054 35.2753 21.4947 35.6738 21.7399 36.1641C21.7921 36.7222 21.7906 37.1928 21.4586 37.6641C21.0597 38.0565 20.7538 38.3324 20.1813 38.3555C19.6571 38.3494 19.3176 38.1977 18.9274 37.8516C18.5784 37.4041 18.4186 37.0375 18.426 36.4633C18.5043 35.9698 18.8194 35.6058 19.1793 35.2793C19.6398 34.9682 20.0697 34.9843 20.6149 35.0391Z" fill="#203354"/>
<path d="M13.9773 23.5727C14.4334 23.7817 14.7031 24.0371 14.9902 24.4461C15.1599 24.9552 15.1497 25.3927 14.9258 25.8758C14.6771 26.3239 14.3328 26.5892 13.8652 26.7898C13.4023 26.8555 13.0319 26.8419 12.6113 26.6316C12.1005 26.1816 11.8278 25.7929 11.7734 25.1082C11.7887 24.6549 11.9139 24.333 12.2422 24.0085C12.7871 23.5305 13.251 23.3465 13.9773 23.5727Z" fill="#1F3254"/>
<path d="M39.0192 30.1608C39.4676 30.4213 39.7178 30.6929 39.8981 31.1847C39.9912 31.8178 39.9131 32.2656 39.5524 32.7902C39.1951 33.1594 38.8841 33.3671 38.3688 33.3879C37.8426 33.381 37.504 33.2354 37.1149 32.884C36.7232 32.4041 36.6751 31.9868 36.6981 31.3722C36.773 30.8887 36.9894 30.6329 37.3529 30.3238C37.8539 29.9807 38.4586 29.9298 39.0192 30.1608Z" fill="#203354"/>
<path d="M34.2442 12.3162C34.6894 12.719 35.0281 13.0615 35.0763 13.6873C35.045 14.1567 34.9482 14.5132 34.6134 14.8581C34.0941 15.3114 33.7763 15.3858 33.0822 15.3767C32.6218 15.335 32.3984 15.1594 32.103 14.8175C31.8015 14.4049 31.6924 14.0367 31.7199 13.5262C31.838 12.9837 32.1521 12.5848 32.586 12.2518C33.1587 12.0897 33.7012 12.0548 34.2442 12.3162Z" fill="#1E3356"/>
<path d="M40.7001 23.5868C41.1816 23.8534 41.4989 24.217 41.709 24.7257C41.7805 25.2353 41.6792 25.5921 41.4277 26.0382C41 26.4789 40.6778 26.7095 40.0566 26.7355C39.5329 26.7317 39.2435 26.6331 38.8551 26.2843C38.5015 25.9156 38.4096 25.6685 38.3867 25.1593C38.4029 24.6779 38.4726 24.3348 38.8027 23.9757C39.3542 23.4764 39.9929 23.3178 40.7001 23.5868Z" fill="#1E3153"/>
<path d="M34.1415 35.049C34.6254 35.3867 34.9781 35.7713 35.0911 36.3674C35.1294 36.9388 34.9429 37.3221 34.5839 37.7583C34.1679 38.1364 33.7696 38.2752 33.2135 38.2633C32.7386 38.1862 32.3767 37.9081 32.0585 37.559C31.7813 37.0699 31.7928 36.5215 31.8651 35.977C32.055 35.5632 32.3209 35.3047 32.6855 35.0395C33.1834 34.8863 33.6584 34.8157 34.1415 35.049Z" fill="#203455"/>
<path d="M38.8967 16.9455C39.3106 17.135 39.5691 17.4013 39.8342 17.7658C39.9926 18.2804 40.0463 18.7436 39.8214 19.246C39.5527 19.6792 39.3079 19.9901 38.803 20.133C38.3168 20.1905 37.8493 20.2099 37.4026 19.9865C36.9711 19.6431 36.7752 19.3686 36.705 18.8289C36.6827 18.2505 36.7067 17.8562 37.1155 17.4143C37.6864 16.9113 38.1433 16.8465 38.8967 16.9455Z" fill="#1E3254"/>
<path d="M27.365 36.8193C27.8354 37.0461 28.1618 37.3817 28.3962 37.8505C28.4688 38.4911 28.4007 39.008 28.0212 39.538C27.5417 39.9942 27.1356 40.0399 26.4956 40.0332C26.0169 39.9838 25.7712 39.7357 25.4607 39.3916C25.1334 38.9189 25.1514 38.4062 25.2087 37.8505C25.6776 36.8953 26.3778 36.7263 27.365 36.8193Z" fill="#1D3255"/>
<path d="M16.1499 17.098C16.5127 17.4263 16.7299 17.7198 16.8069 18.2014C16.8326 18.7585 16.7356 19.2148 16.396 19.6644C15.8889 20.0681 15.4466 20.1993 14.8023 20.1332C14.2546 19.9399 13.9586 19.6062 13.6663 19.1126C13.5125 18.7445 13.534 18.3677 13.5835 17.9769C13.8084 17.5186 14.1984 17.0568 14.6975 16.8849C15.2038 16.8008 15.6911 16.8771 16.1499 17.098Z" fill="#1E3254"/>
<path d="M20.9379 12.269C21.2818 12.5206 21.5479 12.8093 21.7406 13.1947C21.8123 13.8274 21.7563 14.3648 21.3656 14.8822C20.7983 15.3338 20.2927 15.4295 19.5843 15.351C19.1255 15.13 18.8985 14.8515 18.6468 14.4135C18.4734 13.8932 18.4626 13.3792 18.7054 12.8842C18.8157 12.7595 18.8157 12.7595 18.9281 12.6322C19.0054 12.5433 19.0828 12.4544 19.1625 12.3627C19.6542 11.9738 20.3806 12.0866 20.9379 12.269Z" fill="#1D3153"/>
<path d="M27.2715 10.4759C27.7301 10.6967 28.0037 11.0119 28.3027 11.4134C28.4714 11.9194 28.4616 12.3603 28.2441 12.8431C27.9978 13.2893 27.6569 13.5037 27.1777 13.6634C26.7119 13.7123 26.3476 13.7171 25.9238 13.5052C25.436 13.0755 25.1526 12.6871 25.0801 12.0345C25.1372 11.4818 25.3706 11.1208 25.7832 10.7689C26.2673 10.4111 26.68 10.4164 27.2715 10.4759Z" fill="#1E3254"/>
<path d="M27.178 5.03874C27.5936 5.23912 27.846 5.45287 28.0217 5.88249C28.0716 6.40636 28.0452 6.74809 27.7405 7.19499C27.3944 7.52374 27.1206 7.59664 26.6565 7.61101C26.2584 7.59426 25.9788 7.57077 25.678 7.28874C25.393 6.88575 25.3378 6.50371 25.3502 6.02092C25.4285 5.63008 25.661 5.3851 25.9592 5.13249C26.3295 4.94738 26.7745 4.99771 27.178 5.03874Z" fill="#67C3E7"/>
<path d="M23.1465 5.60072C23.4937 5.79072 23.6765 5.92701 23.8965 6.25697C23.9598 6.60708 23.962 6.94717 23.821 7.2776C23.6623 7.50365 23.4895 7.64211 23.2285 7.73133C22.8321 7.79963 22.6287 7.77894 22.2617 7.59876C21.8978 7.27035 21.8457 7.12959 21.7988 6.63783C21.8082 6.25103 21.9285 6.06072 22.209 5.78822C22.561 5.55356 22.7291 5.55827 23.1465 5.60072Z" fill="#C2C2C1"/>
<path d="M19.865 6.72576C20.1233 6.93028 20.2809 7.08874 20.4275 7.38201C20.4629 7.85047 20.4362 8.13113 20.1463 8.50701C19.771 8.75717 19.4625 8.7727 19.0213 8.69451C18.7629 8.48998 18.6054 8.33153 18.4588 8.03826C18.4074 7.5047 18.4969 7.23565 18.8338 6.81951C19.1593 6.65673 19.5099 6.66933 19.865 6.72576Z" fill="#C0C0BF"/>
<path d="M11.4282 13.4776C11.7711 13.6689 11.9597 13.8062 12.1782 14.1339C12.2412 14.7851 12.2412 14.7851 12.0024 15.1593C11.678 15.4742 11.4231 15.4901 10.984 15.4845C10.7719 15.4464 10.7719 15.4464 10.4907 15.2062C10.2838 14.8506 10.2021 14.639 10.2094 14.2276C10.5052 13.6677 10.7802 13.4014 11.4282 13.4776Z" fill="#C2C1BF"/>
<path d="M13.6569 10.7075C14.0091 10.7923 14.1796 10.9659 14.4277 11.2264C14.5599 11.4908 14.5445 11.683 14.5215 11.9764C14.4047 12.2333 14.3048 12.3949 14.082 12.5682C13.7556 12.6652 13.4485 12.6994 13.1152 12.6326C12.7511 12.3383 12.5713 12.1369 12.5176 11.6717C12.5888 10.9598 12.972 10.6629 13.6569 10.7075Z" fill="#C0BFBE"/>
<path d="M16.451 8.46821C16.765 8.52461 16.9332 8.6504 17.1461 8.88386C17.2897 9.17114 17.2613 9.41041 17.2398 9.72761C17.1236 9.98908 17.0256 10.1442 16.8003 10.3194C16.4724 10.4169 16.1685 10.4456 15.8336 10.3839C15.5523 10.2081 15.5523 10.2081 15.3648 9.91511C15.2816 9.46623 15.3098 9.10251 15.4937 8.68464C15.8199 8.45168 16.057 8.44903 16.451 8.46821Z" fill="#BFBFBD"/>
<path d="M9.83353 16.6648C10.1089 16.8933 10.1089 16.8933 10.3023 17.1335C10.3332 17.1645 10.3642 17.1954 10.396 17.2273C10.432 17.6951 10.4042 17.9771 10.1148 18.3523C9.76932 18.5826 9.48481 18.6055 9.08353 18.5398C8.82009 18.3716 8.66078 18.2568 8.52103 17.9773C8.46655 17.3126 8.46655 17.3126 8.69681 16.9519C9.03375 16.6249 9.37706 16.5835 9.83353 16.6648Z" fill="#C1C0BD"/>
<path d="M8.52728 20.0858C8.83485 20.1653 8.98666 20.3587 9.1773 20.6014C9.31105 20.8689 9.30015 21.0546 9.27105 21.3514C9.10231 21.6045 8.98195 21.7772 8.70855 21.9139C8.05768 21.9779 8.05768 21.9779 7.6773 21.7322C7.45868 21.3975 7.42018 21.1972 7.44513 20.8039C7.572 20.2288 7.99012 20.0533 8.52728 20.0858Z" fill="#BFBEBC"/>
<path d="M8.3341 23.6939C8.59729 23.8827 8.76759 24.0219 8.84826 24.3439C8.87331 24.7119 8.82358 24.8815 8.61535 25.1939C8.30106 25.4034 8.13449 25.4451 7.76538 25.422C7.4804 25.3581 7.31532 25.2124 7.11535 25.0064C6.97928 24.7342 6.98669 24.559 7.0216 24.2564C7.35461 23.6997 7.703 23.5172 8.3341 23.6939Z" fill="#C3C2BF"/>
<path d="M8.24023 27.1094C8.58327 27.1737 8.74195 27.2959 8.99023 27.5371C9.12564 27.8079 9.11932 27.9868 9.08398 28.2871C8.83949 28.6279 8.7024 28.7403 8.28711 28.8145C7.86912 28.7398 7.73325 28.6332 7.49023 28.2871C7.43164 27.959 7.43164 27.959 7.49023 27.6309C7.71992 27.3133 7.85248 27.1821 8.24023 27.1094Z" fill="#C1C0BD"/>
<path d="M9.36523 30.5374C9.64062 30.7308 9.64062 30.7308 9.83398 31.0062C9.8402 31.3664 9.81701 31.5679 9.58789 31.8499C9.26063 31.9877 9.04728 31.9422 8.70898 31.8499C8.46635 31.6386 8.43313 31.5119 8.38672 31.1937C8.42773 30.9124 8.42773 30.9124 8.58008 30.6898C8.87306 30.4893 9.01664 30.4734 9.36523 30.5374Z" fill="#BFBEBC"/>
<path d="M10.6423 33.5434C10.8906 33.6414 11.003 33.6863 11.1462 33.9125C11.1873 34.2407 11.1873 34.2407 11.1462 34.5688C10.9939 34.7563 10.9939 34.7563 10.7712 34.85C10.4767 34.838 10.2827 34.8031 10.033 34.645C9.87066 34.3835 9.87838 34.2133 9.92749 33.9125C10.1622 33.651 10.2853 33.5349 10.6423 33.5434Z" fill="#C0BFBC"/>
<path d="M12.4941 36.3281C12.7402 36.3516 12.7402 36.3516 12.9102 36.4629C13.0614 36.6937 13.0621 36.8307 13.0215 37.1016C12.9102 37.2773 12.9102 37.2773 12.7402 37.3828C12.4269 37.3599 12.3085 37.3261 12.084 37.1016C12.1486 36.3645 12.1486 36.3645 12.4941 36.3281Z" fill="#BDBBB6"/>
<path d="M14.8438 38.7734C15.084 38.791 15.084 38.791 15.2715 38.9785C15.2891 39.2188 15.2891 39.2188 15.2715 39.4473C15.1777 39.541 15.1777 39.541 14.8965 39.5527C14.6152 39.541 14.6152 39.541 14.5215 39.4473C14.5098 39.166 14.5098 39.166 14.5215 38.8848C14.6152 38.791 14.6152 38.791 14.8438 38.7734Z" fill="#BBB8B2"/>
<path d="M17.4277 40.6641C17.8548 40.7161 17.8548 40.7161 17.9902 40.8516C18.002 41.0859 18.002 41.0859 17.9902 41.3203C17.8965 41.4141 17.8965 41.4141 17.6094 41.4199C17.5185 41.418 17.4276 41.4161 17.334 41.4141C17.2754 41.1445 17.2754 41.1445 17.2402 40.8516C17.3021 40.7897 17.364 40.7278 17.4277 40.6641Z" fill="#BBBAB5"/>
<path d="M20.4277 42.1641C20.6211 42.2051 20.6211 42.2051 20.8027 42.2578C20.8027 42.4125 20.8027 42.5672 20.8027 42.7266C20.6211 42.7793 20.6211 42.7793 20.4277 42.8203C20.334 42.7266 20.334 42.7266 20.3223 42.4922C20.334 42.2578 20.334 42.2578 20.4277 42.1641Z" fill="#0D1943"/>
</svg>
